<?xml version="1.0" standalone="no"?>
<!DOCTYPE svg PUBLIC "-//W3C//DTD SVG 20010904//EN"
 "http://www.w3.org/TR/2001/REC-SVG-20010904/DTD/svg10.dtd">
<svg version="1.0" xmlns="http://www.w3.org/2000/svg"
 width="500.000000pt" height="500.000000pt" viewBox="0 0 500.000000 500.000000"
 preserveAspectRatio="xMidYMid meet">
<metadata>
Created by potrace 1.11, written by Peter Selinger 2001-2013
</metadata>
<g transform="translate(0.000000,500.000000) scale(0.100000,-0.100000)"
fill="#000000" stroke="none">
<path d="M942 4989 c-439 -58 -807 -389 -918 -826 l-24 -96 0 -1562 0 -1562
24 -95 c51 -200 147 -371 290 -513 140 -141 308 -236 514 -293 l97 -27 1570 0
1570 0 97 27 c206 57 374 152 514 293 141 141 235 305 293 514 l26 96 0 1560
0 1560 -27 97 c-113 410 -397 693 -806 806 l-97 27 -1530 1 c-841 1 -1558 -2
-1593 -7z m942 -2479 l1 -1145 -222 -3 -223 -2 0 1150 0 1150 221 -2 221 -3 2
-1145z m1271 420 l-405 -405 0 -55 0 -55 377 -377 378 -378 -158 -157 -157
-158 -430 430 -430 430 0 265 0 265 457 457 458 458 157 -157 158 -158 -405
-405z"/>
</g>
</svg>
